<svg width="110" height="20" viewBox="0 0 110 20" fill="none" xmlns="http://www.w3.org/2000/svg">
<g clip-path="url(#clip0_76_27426)">
<path fill-rule="evenodd" clip-rule="evenodd" d="M100.074 16.0536C97.9916 16.0336 95.7666 15.0458 95.016 13.3493L109.504 8.27176L109.018 6.81295C107.653 2.70985 104.278 0 99.4448 0C93.6396 0 89.4202 4.57086 89.4202 9.99834C89.4202 15.8802 94.0761 19.9878 100.074 19.9878C103.865 19.9878 107.515 18.1401 109.341 14.857L105.393 13.4537C104.242 15.1736 102.156 16.0736 100.074 16.0536ZM99.6909 3.92867C101.998 3.92867 103.455 5.17305 104.007 6.29743L93.8679 9.86279C93.6218 6.55408 96.0862 3.92867 99.6909 3.92867ZM85.5905 0.587743L80.0492 14.327L74.4244 0.587743H69.451L77.0603 18.0879C77.5914 19.31 78.6761 19.9889 80.0492 19.9889C81.4256 19.9889 82.459 19.3089 82.9902 18.0868L90.6017 0.587743H85.5905ZM27.5238 9.995C27.5238 4.37087 32.113 0.00332962 38.0396 0.00332962C43.9662 0.00332962 48.5553 4.38531 48.5553 10.0083C48.5553 15.6314 43.9662 20 38.0396 20C32.113 20 27.5238 15.6191 27.5238 9.995ZM32.0139 9.98167C32.0139 13.337 34.5974 15.8669 38.0285 15.8669C41.4606 15.8669 44.043 13.3381 44.043 9.98167C44.043 6.62519 41.4595 4.13532 38.0285 4.13532C34.5963 4.13532 32.0139 6.6263 32.0139 9.98167ZM69.9087 6.81296C68.5445 2.70874 65.1692 0.00111213 60.335 0.00111213C54.5309 0.00111213 50.3104 4.57086 50.3104 9.99834C50.3104 15.8802 54.9675 19.9878 60.9653 19.9878C64.756 19.9878 68.4053 18.1401 70.2327 14.857L66.2828 13.4537C65.1347 15.1736 63.0489 16.0736 60.9653 16.0536C58.8829 16.0336 56.6579 15.0469 55.9062 13.3493L70.3942 8.27288L69.9087 6.81296ZM54.7581 9.86279C54.512 6.55408 56.9764 3.92867 60.5811 3.92867C62.8885 3.92867 64.3462 5.17305 64.8986 6.29743L54.7581 9.86279ZM5.55799 0.586631H12.7998C19.978 0.586631 25.7989 6.19743 25.7944 13.1159L25.7899 19.4278H20.7464L20.7342 6.19076C20.7331 5.6308 20.37 5.2797 19.7887 5.2797H5.55799V0.586631ZM10.6293 19.9822L15.6884 18.1834V8.83062L10.6293 7.03627V19.9822ZM5.55799 18.1834L0.5 19.9822V7.03627L5.55799 8.83062V18.1834Z" fill="white"/>
</g>
<defs>
<clipPath id="clip0_76_27426">
<rect width="109" height="20" fill="white" transform="translate(0.5)"/>
</clipPath>
</defs>
</svg>
