<svg xmlns="http://www.w3.org/2000/svg" width="46.175" height="46.175" viewBox="0 0 46.175 46.175">
  <g id="Grupo_4474" data-name="Grupo 4474" transform="translate(0 3.791)">
    <g id="Grupo_4776" data-name="Grupo 4776" transform="translate(0 -3.791)">
      <path id="Trazado_2545" data-name="Trazado 2545" d="M46.175,23.644A23.087,23.087,0,1,1,23.087.557,23.088,23.088,0,0,1,46.175,23.644" transform="translate(0 -0.557)" fill="#d9000d"/>
      <path id="Trazado_2546" data-name="Trazado 2546" d="M31.035,38.053c-6.344.021-12.943-5.393-12.972-14.086A19.6,19.6,0,0,1,25.11,9.4,23.058,23.058,0,0,1,39.08,4.128a5.829,5.829,0,0,1,1.661.183,9.589,9.589,0,0,0-7.53,9.217,2.434,2.434,0,0,0,.028.377c7.03,1.712,10.221,5.953,10.241,11.823A12.355,12.355,0,0,1,31.035,38.053" transform="translate(-7.765 -2.092)" fill="#fff"/>
    </g>
  </g>
</svg>
