<?xml version="1.0" encoding="UTF-8"?>
<svg width="125px" height="55px" viewBox="0 0 125 55" version="1.1" xmlns="http://www.w3.org/2000/svg" xmlns:xlink="http://www.w3.org/1999/xlink">
    <!-- Generator: Sketch 63.1 (92452) - https://sketch.com -->
    <title>Artboard</title>
    <desc>Created with Sketch.</desc>
    <g id="Artboard" stroke="none" stroke-width="1" fill="none" fill-rule="evenodd">
        <g id="Logo_naturgy" transform="translate(2.000000, 12.000000)">
            <g id="Group-18">
                <path d="M120.230065,4.84839196 C120.399584,4.69567839 120.55035,4.63824121 120.663462,4.63824121 C120.83313,4.63824121 120.946093,4.7719598 120.946093,5.0201005 C120.946093,6.68065327 112.767803,16.338995 110.374593,18.610402 C108.41478,20.4809548 107.020377,21.6835176 106.20999,21.6835176 C105.946112,21.6835176 105.776593,21.5499497 105.776593,21.2253769 C105.776593,19.9846734 107.623294,16.7015578 107.623294,16.7015578 L107.623294,16.6062814 L104.212523,19.6601005 C103.421185,20.3663819 102.460181,20.6909548 101.593088,20.6909548 C100.010265,20.6909548 98.6347648,19.4311055 98.6347648,16.5298492 L98.6347648,0.973567839 C98.6347648,0.324723618 99.0681621,0 99.6145225,0 C99.9349567,0 100.311798,0.133869347 100.688639,0.362864322 C103.081999,1.90884422 106.191237,4.82924623 108.584299,8.81864322 C108.961289,9.44849246 109.112055,10.0783417 109.112055,10.708191 C109.112055,12.7314573 107.510331,14.7737186 105.852199,16.6062814 L105.852199,16.7207035 L120.230065,4.84839196 Z" id="Fill-1" fill="#E57200"></path>
                <path d="M27.036624,19.5590955 L27.036624,21.5256784 C27.036624,21.8021608 26.9046105,21.9159799 26.5125883,21.9940704 C25.9183042,22.1127136 25.1687888,22.1868844 24.4496351,22.1868844 C22.6120127,22.1868844 22.0098405,21.6777889 22.0098405,20.8013065 C22.0098405,20.4511055 22.1131295,20.1850251 22.3106289,19.9870854 C22.6026363,19.6940201 23.1278626,19.5590955 23.9174137,19.5590955 L27.036624,19.5590955 Z M29.6882058,24.329397 C30.3441062,24.0630151 30.5750926,23.6535678 30.5750926,22.849598 L30.5750926,17.4394975 C30.5750926,15.300603 30.2039069,14.0592965 29.3067507,13.1932161 C28.3460434,12.2660804 26.7809315,11.8447236 24.2567494,11.8447236 C22.8921135,11.8447236 21.6530914,11.9365327 20.7727531,12.1129146 C19.8910754,12.289598 19.6062119,12.7014573 19.6062119,13.5251759 C19.6062119,14.0274874 19.6492242,14.6565829 19.7062267,15.0396482 C19.7388208,15.2579397 19.856993,15.3304523 20.1393263,15.2900503 C21.5191431,15.091809 22.7545932,14.979196 23.9055071,14.979196 C25.3902501,14.979196 26.1515231,15.0747739 26.5810508,15.4022111 C26.9151775,15.6568342 27.036624,16.0649246 27.036624,16.728392 L27.036624,17.158794 C25.9514936,17.0176884 24.723485,16.9350754 23.848207,16.9350754 C21.7855514,16.9350754 20.3264075,17.3362312 19.4420508,18.1798492 C18.7541517,18.8357789 18.3828171,19.7942714 18.3828171,20.9410553 C18.3828171,23.5046231 20.1924592,25.1519095 24.3502156,25.1519095 C26.468683,25.1519095 28.4862427,24.8169347 29.6882058,24.329397 L29.6882058,24.329397 Z" id="Fill-3" fill="#004571"></path>
                <path d="M61.386098,17.3974523 C61.386098,16.3967487 61.5276368,15.9405678 61.8416712,15.6010704 C62.1819,15.2335327 62.7726122,15.0710201 63.7022137,15.0710201 C64.0559861,15.0710201 64.5984769,15.1062965 65.193654,15.1527286 C65.488638,15.1760955 65.5855273,15.0836834 65.6341952,14.8442864 C65.6955138,14.5438342 65.7489443,14.0045879 65.7489443,13.5542864 C65.7489443,12.8397136 65.5432592,12.4397638 65.0126749,12.2091106 C64.5629062,12.0132814 63.7103994,11.8447387 62.6438729,11.8447387 C61.2503637,11.8447387 60.0059836,12.1830302 59.1387426,12.9663467 C58.3343084,13.6932814 57.8477782,14.7844372 57.8477782,16.7244874 L57.8477782,24.5235829 C57.8477782,24.7840854 58.002563,24.8802663 58.2094387,24.8802663 L61.386098,24.8802663 L61.386098,17.3974523 Z" id="Fill-5" fill="#004571"></path>
                <path d="M36.6385768,12.1163668 L36.6385768,8.33817588 L33.7729753,8.33817588 C33.2593578,8.33817588 33.1001081,8.54938191 33.1001081,9.00601508 L33.1001081,20.5056633 C33.1001081,22.2075226 33.4808191,23.2003869 34.1966985,23.9119447 C34.9959236,24.7062663 36.1585952,25.1518945 37.7301069,25.1518945 C38.9219494,25.1518945 40.1057551,24.8665176 41.0167526,24.4673216 C41.7205768,24.1588794 41.9680835,23.8620452 41.9680835,23.3968191 C41.9680835,23.2174221 41.9271549,23.0163166 41.8622643,22.7916935 C41.771626,22.4778241 41.5921352,21.9251608 41.4431549,21.5900352 C41.3757342,21.4382261 41.3077182,21.3649598 41.1774907,21.3649598 C41.1326924,21.3649598 41.0701831,21.3767186 40.9782053,21.403402 C40.0517293,21.6731005 39.0197317,21.8844573 38.3229027,21.8844573 C37.6762299,21.8844573 37.2761708,21.7561658 37.0201807,21.4905377 C36.7403775,21.1998844 36.6385768,20.7530503 36.6385768,20.0277739 L36.6385768,15.3218442 L39.9182274,15.3218442 C40.4196407,15.3218442 40.6915558,15.1949095 40.8525915,14.9060653 C41.003209,14.6362161 41.0672065,14.2246583 41.0672065,13.6428995 C41.0672065,13.211593 41.0227059,12.6626985 40.9694242,12.3905879 C40.9299839,12.1893317 40.8266948,12.1163668 40.5757649,12.1163668 L36.6385768,12.1163668 Z" id="Fill-7" fill="#004571"></path>
                <path d="M55.3732464,12.1163668 L52.5098774,12.1163668 C51.9964087,12.1163668 51.8353731,12.3277236 51.8353731,12.784206 L51.8353731,19.4656131 C51.8353731,20.3280754 51.6509708,20.8819447 51.2775526,21.2556633 C50.8846375,21.6486784 50.282763,21.8764673 49.4668688,21.8764673 C48.6511234,21.8764673 48.0492488,21.6486784 47.6561849,21.2556633 C47.2830643,20.8819447 47.0983645,20.3280754 47.0983645,19.4656131 L47.0983645,12.1163668 L44.2375256,12.1163668 C43.7239081,12.1163668 43.5622771,12.3277236 43.5622771,12.784206 L43.5622771,19.9311407 C43.5622771,21.5454121 44.0257384,22.7295829 44.8767568,23.5834523 C45.8952107,24.6055628 47.468806,25.1518945 49.4668688,25.1518945 C51.4652292,25.1518945 53.0386756,24.6055628 54.0571295,23.5834523 C54.908148,22.7295829 55.3732464,21.5454121 55.3732464,19.9311407 L55.3732464,12.1163668 Z" id="Fill-9" fill="#004571"></path>
                <path d="M72.790028,29.8751307 C75.2338411,29.8751307 76.8566996,29.3220151 77.9013478,28.2319146 C78.8571437,27.2342261 79.2845877,25.7874422 79.2845877,23.9031709 L79.2845877,18.078196 C79.2845877,16.0831206 78.7245348,14.6363367 77.7599579,13.6347286 C76.6602421,12.4932211 74.9081978,11.8446784 73.0588177,11.8446784 C69.0667107,11.8446784 66.5362777,14.3723668 66.5362777,18.5076935 C66.5362777,22.3828191 68.575418,24.9827186 72.1999112,24.9827186 C73.7266246,24.9827186 74.9382617,24.4030704 75.7459702,23.4882965 L75.7459702,24.040809 C75.7459702,24.9353819 75.5957993,25.5513618 75.1769875,25.9835729 C74.6755742,26.5009598 73.6822728,26.7307085 72.2668854,26.7307085 C71.3305865,26.7307085 70.1394881,26.6117638 69.124755,26.4649296 C68.7886935,26.4165377 68.5711018,26.550407 68.5129087,26.9640754 C68.4617107,27.3263367 68.4335815,27.8624171 68.4335815,28.1927186 C68.4335815,29.0401055 68.6812371,29.4157839 69.6304844,29.6090503 C70.4892421,29.7840754 71.7090649,29.8751307 72.790028,29.8751307 M75.7458214,18.0405075 L75.7458214,18.3986985 C75.7458214,19.6543266 75.4907242,20.6001558 74.9178718,21.1915628 C74.4722704,21.6518141 73.8257464,21.9174422 72.99229,21.9174422 C70.9995852,21.9174422 70.1755053,20.5535729 70.1755053,18.5076935 C70.1755053,16.1838241 71.3338608,15.1207085 72.9881228,15.1207085 C73.8108632,15.1207085 74.5136455,15.3929698 74.9814229,15.8557839 C75.482985,16.3522161 75.7458214,17.0913618 75.7458214,18.0405075" id="Fill-11" fill="#004571"></path>
                <path d="M15.9847846,7.80295477 L15.9847846,23.1418492 C15.9847846,23.7344623 15.8535153,24.1475276 15.5860651,24.4161709 C15.2144328,24.7895879 14.5670159,24.9355176 13.6658412,24.9355176 C13.2172631,24.9355176 12.6554242,24.8774774 12.2391426,24.753407 C11.8999556,24.6521005 11.7024562,24.4867236 11.4830786,24.1898894 C9.26846605,21.1904925 6.27680431,17.0945126 3.70588918,13.5787839 L3.70588918,24.3590352 C3.70588918,24.7518995 3.58816347,24.8800402 3.16935166,24.8800402 L-1.48831488e-05,24.8800402 L-1.48831488e-05,9.54054271 C-1.48831488e-05,8.94823116 0.13125449,8.53471357 0.398704674,8.26622111 C0.770188069,7.89310553 1.41775387,7.74702513 2.3187797,7.74702513 C2.76735781,7.74702513 3.32934551,7.80521608 3.74547835,7.92913568 C4.10609705,8.03692462 4.28558782,8.19823116 4.50154231,8.49250251 C6.46046236,11.1608442 9.46938856,15.2865226 12.2779876,19.1372261 L12.2779876,8.31853266 C12.2779876,7.94104523 12.4361954,7.80295477 12.8090183,7.80295477 L15.9847846,7.80295477 Z" id="Fill-13" fill="#004571"></path>
                <path d="M83.7452758,26.4949447 C83.3609929,26.4394673 83.1876042,26.6579095 83.1375968,26.9983116 C83.0945845,27.2921307 83.0541023,27.8527839 83.0541023,28.2269548 C83.0541023,29.0036382 83.270801,29.4245427 84.2298711,29.6176583 C85.0351983,29.7798693 86.3087493,29.8751457 87.3635181,29.8751457 C89.6247149,29.8751457 91.1819387,29.2923317 92.1362462,28.256804 C93.1131761,27.1962513 93.5025193,25.6728844 93.5025193,23.5217789 L93.5025193,12.1163518 L90.5755993,12.1163518 C90.1538108,12.1163518 89.9630089,12.3491156 89.9630089,12.784191 L89.9630089,18.9964523 C89.9630089,20.0156985 89.7736952,20.7085628 89.3510138,21.1748442 C88.9219326,21.6479095 88.2536792,21.8936382 87.4206694,21.8936382 C86.6724935,21.8936382 86.1221146,21.6807739 85.7698305,21.2815779 C85.3883754,20.8496683 85.2361208,20.246804 85.2361208,19.2201709 L85.2361208,12.1163518 L82.3231909,12.1163518 C81.8454418,12.1163518 81.6973545,12.3922312 81.6973545,12.7597688 L81.6973545,19.564191 C81.6973545,21.4623317 82.1298588,22.7211256 82.9877235,23.6132864 C83.8238588,24.4829849 85.0642204,24.9827337 86.7016645,24.9827337 C88.1499437,24.9827337 89.321694,24.3720302 89.9630089,23.6767538 L89.9630089,24.0085628 C89.9630089,24.8680101 89.8478133,25.5123317 89.4732044,25.9597688 C89.0252216,26.4949447 88.1871515,26.747608 86.7229474,26.747608 C85.7683422,26.747608 84.6394554,26.6238392 83.7452758,26.4949447" id="Fill-16" fill="#004571"></path>
            </g>
        </g>
    </g>
</svg>