<svg width="168" height="32" viewBox="0 0 168 32" fill="none" xmlns="http://www.w3.org/2000/svg">
<path d="M66.9166 14.0744C66.9166 14.0744 66.9166 15.3206 66.9166 15.9112C67.616 14.5705 68.985 13.7082 70.5022 13.655H71.2074V16.8385H70.4844C68.3923 16.8385 67.2367 18.3741 67.2367 20.2818V27.328H63.5029V14.0744H66.9166Z" fill="#D7001E"/>
<path d="M105.57 20.5186C105.611 18.4751 103.987 16.7859 101.937 16.7445C99.8862 16.7032 98.1913 18.3215 98.1498 20.3651C98.1083 22.4086 99.7322 24.0978 101.783 24.1392C101.806 24.1392 101.836 24.1392 101.86 24.1392H105.57V20.5186ZM105.902 15.6814V14.0749H109.304V31.9945H105.57V27.3108H101.706C97.9246 27.3699 94.8072 24.3577 94.7479 20.5895C94.6887 16.8213 97.7112 13.7147 101.498 13.6556C103.193 13.6379 104.805 14.3702 105.902 15.6578V15.6814Z" fill="#D7001E"/>
<path fill-rule="evenodd" clip-rule="evenodd" d="M59.8049 14.0747V27.3106H56.0771V14.0747H59.8049ZM59.8049 9.21387V12.3914H56.0771V9.21387H59.8049Z" fill="#D7001E"/>
<path d="M45.8596 12.3914C43.5482 12.3265 41.6221 14.1338 41.5569 16.4372V18.3272H48.2599V12.421L45.8596 12.3914ZM48.2599 27.3106V21.3335H41.551V27.3106H37.8054V16.7857C37.8054 12.604 41.4147 9.21387 45.8833 9.21387H52.0291V27.3106H48.2599Z" fill="#D7001E"/>
<path fill-rule="evenodd" clip-rule="evenodd" d="M92.0689 9.21387V12.3914H88.3352V9.21387H92.0689ZM92.0689 14.0747V27.3106H88.3352V14.0747H92.0689Z" fill="#D7001E"/>
<path fill-rule="evenodd" clip-rule="evenodd" d="M133.342 9.21387V12.3914H129.608V9.21387H133.342ZM133.342 14.0747V27.3106H129.608V14.0747H133.342Z" fill="#D7001E"/>
<path fill-rule="evenodd" clip-rule="evenodd" d="M112.599 14.0745H116.326V21.475C116.326 23.1169 117.66 24.4458 119.307 24.4458C120.955 24.4458 122.289 23.1169 122.289 21.475V14.0745H126.016V27.3163H122.609V25.6979L122.555 25.757C121.453 27.015 119.859 27.7356 118.181 27.7179C115.064 27.6765 112.563 25.125 112.605 22.0184C112.605 22.0124 112.605 22.0065 112.605 22.0006L112.599 14.0745Z" fill="#D7001E"/>
<path d="M81.0101 9.21387V24.1389H85.8758V27.3047L77.2349 27.3165V9.21387H81.0101Z" fill="#D7001E"/>
<path d="M146.854 20.8728C146.89 22.9104 145.26 24.5937 143.215 24.6291C141.17 24.6646 139.481 23.0404 139.446 21.0027C139.41 18.9651 141.04 17.2818 143.085 17.2464C143.108 17.2464 143.126 17.2464 143.15 17.2464H146.854V20.8728ZM147.186 25.7041V27.3106H150.594V9.21387H146.854V14.0747H142.99C139.209 14.0156 136.091 17.0278 136.038 20.8019C135.985 24.576 139.001 27.6768 142.788 27.7299C144.477 27.7358 146.089 26.9916 147.174 25.6982L147.186 25.7041Z" fill="#D7001E"/>
<path d="M156.811 19.4731H164.426C163.994 17.8075 162.465 16.6558 160.74 16.6853C158.956 16.6558 157.368 17.7839 156.811 19.4731ZM160.74 27.7418C156.591 27.7418 153.231 24.5879 153.231 20.7016C153.231 16.8153 156.591 13.6613 160.74 13.6613C164.646 13.5609 167.893 16.6322 168 20.5303C168 20.5893 168 20.6484 168 20.7016C168 21.0973 167.976 21.493 167.935 21.8828H156.805C157.35 23.5838 158.95 24.7296 160.74 24.7001C162.168 24.8005 163.555 24.2158 164.474 23.1231L167.158 24.8596C165.57 26.7436 163.205 27.8009 160.74 27.7418Z" fill="#D7001E"/>
<path d="M16.055 0H0V16C0 24.8357 7.18891 32 16.055 32C24.9212 32 32.1101 24.8357 32.1101 16C32.1101 7.16427 24.9212 0 16.055 0ZM27.4103 27.3104H16.0373C9.75511 27.3104 4.6642 22.237 4.6642 15.9764C4.6642 9.71576 9.75511 4.6423 16.0373 4.6423C22.3194 4.6423 27.4103 9.71576 27.4103 15.9764V27.3104ZM16.0373 9.21373C19.7828 9.21373 22.8232 12.2436 22.8232 15.9764V22.7449H16.0373C12.2857 22.8571 9.15652 19.9158 9.04985 16.1772C8.93724 12.4385 11.8887 9.32004 15.6402 9.21373C15.7706 9.20783 15.9009 9.20783 16.0373 9.21373Z" fill="#375F9B"/>
</svg>
