<svg xmlns="http://www.w3.org/2000/svg" xmlns:xlink="http://www.w3.org/1999/xlink" width="193" zoomAndPan="magnify" viewBox="0 0 144.75 55.5" height="74" preserveAspectRatio="xMidYMid meet" version="1.0"><path fill="#becd34" d="M 23.242188 19.472656 L 21.386719 30.644531 C 19.945312 39.269531 17 44.074219 12.394531 46.714844 C 15.296875 46.488281 24.34375 43.023438 25.992188 33.089844 L 28.0625 20.71875 C 29.761719 10.546875 31.839844 8.449219 34.347656 6.878906 C 37.140625 6.507812 38.71875 8.417969 41.011719 12.75 L 42 7.824219 C 41.21875 6.929688 39.734375 5.863281 37.484375 5.863281 C 33.152344 5.863281 24.753906 10.410156 23.25 19.472656 " fill-opacity="1" fill-rule="nonzero"/><path fill="#054280" d="M 38.960938 22.746094 L 39.027344 22.746094 C 40.222656 21.105469 42.242188 20.21875 44.148438 20.21875 C 48.5625 20.21875 49.230469 23.140625 48.628906 26.871094 L 47.152344 36.011719 L 44.140625 36.011719 L 45.558594 27.226562 C 45.984375 24.601562 45.898438 22.832031 42.824219 22.832031 C 38.945312 22.832031 38.402344 26.175781 37.953125 28.96875 L 36.8125 36.011719 L 33.800781 36.011719 L 36.273438 20.667969 L 39.285156 20.667969 L 38.953125 22.730469 Z M 38.960938 22.746094 " fill-opacity="1" fill-rule="nonzero"/><path fill="#054280" d="M 55.40625 20.683594 L 54.035156 29.175781 C 53.636719 31.636719 53.921875 33.800781 56.902344 33.800781 C 59.882812 33.800781 60.863281 31.636719 61.257812 29.175781 L 62.628906 20.683594 L 65.636719 20.683594 L 64.210938 29.503906 C 63.539062 33.699219 61.066406 36.550781 56.453125 36.550781 C 51.835938 36.550781 50.296875 33.699219 50.96875 29.503906 L 52.394531 20.683594 Z M 55.40625 20.683594 " fill-opacity="1" fill-rule="nonzero"/><path fill="#054280" d="M 81.292969 23.175781 L 81.394531 23.175781 C 82.417969 21.371094 84.144531 20.226562 86.148438 20.226562 C 87.015625 20.226562 87.839844 20.519531 88.5 20.976562 L 86.695312 23.667969 C 86.238281 23.210938 85.65625 23.046875 84.953125 23.046875 C 81.707031 23.046875 80.832031 25.996094 80.433594 28.488281 L 79.214844 36.027344 L 76.207031 36.027344 L 78.683594 20.683594 L 81.695312 20.683594 Z M 81.292969 23.175781 " fill-opacity="1" fill-rule="nonzero"/><path fill="#054280" d="M 99.320312 26.617188 C 99.320312 24.320312 98.03125 22.773438 95.621094 22.773438 C 93.214844 22.773438 91.273438 24.414062 90.558594 26.617188 Z M 90.027344 28.84375 C 89.632812 31.464844 91.050781 33.929688 93.917969 33.929688 C 96.222656 33.929688 97.648438 32.785156 99.082031 30.945312 L 101.398438 32.355469 C 99.5 35.011719 96.503906 36.550781 93.464844 36.550781 C 88.6875 36.550781 86.34375 33.011719 87.074219 28.488281 C 87.839844 23.769531 90.988281 20.226562 96.039062 20.226562 C 101.089844 20.226562 102.773438 23.828125 102.042969 28.386719 L 101.972656 28.84375 Z M 90.027344 28.84375 " fill-opacity="1" fill-rule="nonzero"/><path fill="#054280" d="M 116.867188 25.042969 C 115.878906 23.699219 114.523438 22.976562 112.71875 22.976562 C 109.773438 22.976562 107.085938 25.53125 106.636719 28.351562 C 106.125 31.5 107.996094 33.792969 111.171875 33.792969 C 112.90625 33.792969 114.4375 33.003906 115.777344 31.757812 L 115.167969 35.53125 C 113.679688 36.253906 112.257812 36.550781 110.691406 36.550781 C 106.078125 36.550781 102.859375 33.078125 103.605469 28.488281 C 104.371094 23.734375 108.683594 20.226562 113.5 20.226562 C 114.894531 20.226562 116.386719 20.554688 117.484375 21.242188 Z M 116.867188 25.042969 " fill-opacity="1" fill-rule="nonzero"/><path fill="#054280" d="M 120.65625 28.386719 C 120.191406 31.265625 122.167969 33.726562 125.140625 33.726562 C 128.117188 33.726562 130.890625 31.265625 131.355469 28.386719 C 131.828125 25.464844 129.84375 23.039062 126.871094 23.039062 C 123.894531 23.039062 121.121094 25.464844 120.648438 28.386719 M 134.371094 28.386719 C 133.625 33.003906 129.375 36.550781 124.691406 36.550781 C 120.003906 36.550781 116.902344 33.011719 117.65625 28.386719 C 118.398438 23.761719 122.648438 20.226562 127.335938 20.226562 C 132.019531 20.226562 135.125 23.769531 134.378906 28.386719 " fill-opacity="1" fill-rule="nonzero"/><path fill="#054280" d="M 73.925781 15.785156 L 70.917969 15.785156 L 70.121094 20.683594 L 68.480469 20.683594 L 68.039062 23.441406 L 69.679688 23.441406 L 67.644531 36.027344 L 70.652344 36.027344 L 72.6875 23.441406 L 76.089844 23.441406 L 76.535156 20.683594 L 73.132812 20.683594 Z M 73.925781 15.785156 " fill-opacity="1" fill-rule="nonzero"/><path fill="#054280" d="M 15.167969 23.949219 L 14.070312 30.644531 C 12.285156 41.53125 11.332031 44.074219 6.71875 46.714844 C 10.023438 46.128906 17.035156 42.941406 18.847656 31.960938 L 19.980469 25.1875 C 21.679688 15.011719 23.757812 12.914062 26.265625 11.347656 C 29.058594 10.976562 30.636719 12.886719 32.929688 17.21875 L 33.917969 12.292969 C 33.136719 11.398438 31.652344 10.332031 29.402344 10.332031 C 25.070312 10.332031 16.671875 14.878906 15.167969 23.941406 " fill-opacity="1" fill-rule="nonzero"/><path fill="#054280" d="M 72.179688 45.898438 C 71.890625 46.085938 71.449219 46.078125 71.046875 46.148438 C 70.652344 46.214844 70.292969 46.359375 70.292969 46.84375 C 70.292969 47.261719 70.816406 47.382812 71.148438 47.382812 C 71.546875 47.382812 72.1875 47.175781 72.1875 46.585938 L 72.1875 45.898438 Z M 73.101562 47.066406 C 73.101562 47.296875 73.152344 47.382812 73.316406 47.382812 C 73.375 47.382812 73.445312 47.382812 73.546875 47.367188 L 73.546875 48.003906 C 73.410156 48.054688 73.117188 48.113281 72.964844 48.113281 C 72.59375 48.113281 72.328125 47.984375 72.25 47.605469 C 71.886719 47.960938 71.296875 48.113281 70.804688 48.113281 C 70.050781 48.113281 69.371094 47.710938 69.371094 46.886719 C 69.371094 45.84375 70.207031 45.671875 70.980469 45.585938 C 71.648438 45.464844 72.234375 45.535156 72.234375 44.992188 C 72.234375 44.511719 71.742188 44.425781 71.367188 44.425781 C 70.851562 44.425781 70.488281 44.632812 70.445312 45.089844 L 69.519531 45.089844 C 69.585938 44.015625 70.503906 43.703125 71.425781 43.703125 C 72.242188 43.703125 73.101562 44.03125 73.101562 44.910156 Z M 73.101562 47.066406 " fill-opacity="1" fill-rule="nonzero"/><path fill="#054280" d="M 74.175781 43.816406 L 75.050781 43.816406 L 75.050781 44.433594 L 75.066406 44.445312 C 75.339844 43.988281 75.820312 43.703125 76.371094 43.703125 C 77.28125 43.703125 77.851562 44.1875 77.851562 45.125 L 77.851562 47.996094 L 76.929688 47.996094 L 76.929688 45.371094 C 76.914062 44.710938 76.65625 44.433594 76.113281 44.433594 C 75.496094 44.433594 75.101562 44.917969 75.101562 45.535156 L 75.101562 48.003906 L 74.175781 48.003906 Z M 74.175781 43.816406 " fill-opacity="1" fill-rule="nonzero"/><path fill="#054280" d="M 82.03125 46.070312 C 82.03125 46.960938 82.691406 47.308594 83.5 47.308594 C 84.386719 47.308594 84.722656 46.875 84.722656 46.4375 C 84.722656 46 84.480469 45.8125 84.246094 45.726562 C 83.84375 45.578125 83.3125 45.46875 82.519531 45.25 C 81.527344 44.984375 81.234375 44.382812 81.234375 43.78125 C 81.234375 42.621094 82.304688 42.082031 83.347656 42.082031 C 84.550781 42.082031 85.570312 42.722656 85.570312 43.929688 L 84.558594 43.929688 C 84.507812 43.1875 84.007812 42.914062 83.3125 42.914062 C 82.839844 42.914062 82.253906 43.085938 82.253906 43.664062 C 82.253906 44.066406 82.523438 44.296875 82.941406 44.410156 C 83.027344 44.433594 84.308594 44.769531 84.609375 44.855469 C 85.371094 45.082031 85.734375 45.726562 85.734375 46.328125 C 85.734375 47.625 84.582031 48.140625 83.433594 48.140625 C 82.117188 48.140625 81.050781 47.511719 81.019531 46.078125 L 82.03125 46.078125 Z M 82.03125 46.070312 " fill-opacity="1" fill-rule="nonzero"/><path fill="#054280" d="M 86.671875 42.21875 L 87.683594 42.21875 L 87.683594 44.519531 L 90.320312 44.519531 L 90.320312 42.21875 L 91.332031 42.21875 L 91.332031 47.996094 L 90.320312 47.996094 L 90.320312 45.390625 L 87.683594 45.390625 L 87.683594 47.996094 L 86.671875 47.996094 Z M 86.671875 42.21875 " fill-opacity="1" fill-rule="nonzero"/><path fill="#054280" d="M 91.96875 42.21875 L 93.023438 42.21875 L 94.476562 46.792969 L 94.492188 46.792969 L 95.972656 42.21875 L 97 42.21875 L 95.019531 47.996094 L 93.894531 47.996094 Z M 91.96875 42.21875 " fill-opacity="1" fill-rule="nonzero"/><path fill="#054280" d="M 102.6875 45.210938 C 102.617188 44.703125 102.242188 44.425781 101.734375 44.425781 C 101.253906 44.425781 100.585938 44.675781 100.585938 45.941406 C 100.585938 46.636719 100.894531 47.375 101.699219 47.375 C 102.234375 47.375 102.609375 47.015625 102.695312 46.421875 L 103.617188 46.421875 C 103.445312 47.503906 102.773438 48.105469 101.699219 48.105469 C 100.386719 48.105469 99.664062 47.175781 99.664062 45.941406 C 99.664062 44.710938 100.351562 43.695312 101.726562 43.695312 C 102.703125 43.695312 103.527344 44.179688 103.613281 45.207031 L 102.6875 45.207031 Z M 102.6875 45.210938 " fill-opacity="1" fill-rule="nonzero"/><path fill="#054280" d="M 107.550781 45.898438 C 107.550781 45.175781 107.1875 44.425781 106.363281 44.425781 C 105.539062 44.425781 105.171875 45.175781 105.171875 45.898438 C 105.171875 46.621094 105.539062 47.382812 106.363281 47.382812 C 107.1875 47.382812 107.550781 46.628906 107.550781 45.898438 M 104.25 45.898438 C 104.25 44.617188 105.015625 43.703125 106.363281 43.703125 C 107.710938 43.703125 108.476562 44.625 108.476562 45.898438 C 108.476562 47.175781 107.710938 48.113281 106.363281 48.113281 C 105.015625 48.113281 104.25 47.1875 104.25 45.898438 " fill-opacity="1" fill-rule="nonzero"/><path fill="#054280" d="M 109.320312 43.816406 L 110.195312 43.816406 L 110.195312 44.394531 L 110.21875 44.394531 C 110.488281 43.980469 110.839844 43.703125 111.507812 43.703125 C 112.015625 43.703125 112.496094 43.917969 112.683594 44.394531 C 112.992188 43.964844 113.382812 43.703125 113.992188 43.703125 C 114.875 43.703125 115.390625 44.089844 115.390625 45.113281 L 115.390625 48.003906 L 114.464844 48.003906 L 114.464844 45.5625 C 114.464844 44.898438 114.421875 44.4375 113.707031 44.4375 C 113.082031 44.4375 112.820312 44.855469 112.820312 45.554688 L 112.820312 48.011719 L 111.894531 48.011719 L 111.894531 45.328125 C 111.894531 44.753906 111.714844 44.445312 111.15625 44.445312 C 110.675781 44.445312 110.238281 44.832031 110.238281 45.535156 L 110.238281 48.019531 L 109.316406 48.019531 L 109.316406 43.835938 Z M 109.320312 43.816406 " fill-opacity="1" fill-rule="nonzero"/><path fill="#054280" d="M 118.542969 44.433594 C 117.761719 44.433594 117.367188 45.027344 117.367188 45.914062 C 117.367188 46.757812 117.796875 47.390625 118.542969 47.390625 C 119.390625 47.390625 119.703125 46.644531 119.703125 45.914062 C 119.703125 45.183594 119.308594 44.433594 118.542969 44.433594 M 116.472656 43.816406 L 117.347656 43.816406 L 117.347656 44.382812 L 117.359375 44.382812 C 117.617188 43.902344 118.121094 43.703125 118.65625 43.703125 C 119.976562 43.703125 120.613281 44.703125 120.613281 45.929688 C 120.613281 47.050781 120.046875 48.113281 118.808594 48.113281 C 118.269531 48.113281 117.699219 47.917969 117.402344 47.460938 L 117.390625 47.460938 L 117.390625 49.550781 L 116.464844 49.550781 L 116.464844 43.824219 Z M 116.472656 43.816406 " fill-opacity="1" fill-rule="nonzero"/><path fill="#054280" d="M 124.066406 45.898438 C 123.78125 46.085938 123.335938 46.078125 122.9375 46.148438 C 122.542969 46.214844 122.183594 46.359375 122.183594 46.84375 C 122.183594 47.261719 122.707031 47.382812 123.035156 47.382812 C 123.4375 47.382812 124.074219 47.175781 124.074219 46.585938 L 124.074219 45.898438 Z M 124.984375 47.066406 C 124.984375 47.296875 125.035156 47.382812 125.199219 47.382812 C 125.257812 47.382812 125.328125 47.382812 125.429688 47.367188 L 125.429688 48.003906 C 125.292969 48.054688 125 48.113281 124.847656 48.113281 C 124.476562 48.113281 124.210938 47.984375 124.132812 47.605469 C 123.765625 47.960938 123.179688 48.113281 122.683594 48.113281 C 121.933594 48.113281 121.25 47.710938 121.25 46.886719 C 121.25 45.84375 122.089844 45.671875 122.863281 45.585938 C 123.53125 45.464844 124.117188 45.535156 124.117188 44.992188 C 124.117188 44.511719 123.625 44.425781 123.25 44.425781 C 122.734375 44.425781 122.371094 44.632812 122.328125 45.089844 L 121.402344 45.089844 C 121.464844 44.015625 122.382812 43.703125 123.308594 43.703125 C 124.125 43.703125 124.984375 44.03125 124.984375 44.910156 Z M 124.984375 47.066406 " fill-opacity="1" fill-rule="nonzero"/><path fill="#054280" d="M 126.066406 43.816406 L 126.941406 43.816406 L 126.941406 44.433594 L 126.957031 44.445312 C 127.226562 43.988281 127.707031 43.703125 128.257812 43.703125 C 129.167969 43.703125 129.742188 44.1875 129.742188 45.125 L 129.742188 47.996094 L 128.816406 47.996094 L 128.816406 45.371094 C 128.804688 44.710938 128.546875 44.433594 128 44.433594 C 127.386719 44.433594 126.992188 44.917969 126.992188 45.535156 L 126.992188 48.003906 L 126.066406 48.003906 Z M 126.066406 43.816406 " fill-opacity="1" fill-rule="nonzero"/><path fill="#054280" d="M 130.328125 43.816406 L 131.339844 43.816406 L 132.4375 46.9375 L 132.449219 46.9375 L 133.511719 43.816406 L 134.472656 43.816406 L 132.84375 48.226562 C 132.542969 48.976562 132.328125 49.660156 131.363281 49.660156 C 131.148438 49.660156 130.933594 49.644531 130.722656 49.609375 L 130.722656 48.828125 C 130.867188 48.847656 131.019531 48.886719 131.160156 48.886719 C 131.589844 48.886719 131.699219 48.65625 131.804688 48.304688 L 131.914062 47.984375 L 130.324219 43.816406 Z M 130.328125 43.816406 " fill-opacity="1" fill-rule="nonzero"/></svg>